<svg width="32" height="32" viewBox="0 0 32 32" fill="none" xmlns="http://www.w3.org/2000/svg">
<g clip-path="url(#clip0_10_24)">
<path d="M15.8494 0C12.7923 -3.77363e-08 9.80387 0.938383 7.262 2.69649C4.72011 4.45459 2.73896 6.95345 1.56906 9.87706C0.399154 12.8007 0.0930537 16.0177 0.689464 19.1214C1.28588 22.2251 2.75801 25.0761 4.9197 27.3137C7.0814 29.5513 9.83556 31.0752 12.8339 31.6926C15.8323 32.3099 18.9402 31.9931 21.7646 30.7821C24.5889 29.5711 27.003 27.5203 28.7015 24.8891C30.3999 22.2579 31.3064 19.1645 31.3064 16H23.5779C23.5779 17.5823 23.1247 19.129 22.2754 20.4446C21.4263 21.7602 20.2192 22.7855 18.807 23.391C17.3948 23.9965 15.8409 24.155 14.3417 23.8463C12.8425 23.5376 11.4654 22.7757 10.3846 21.6569C9.30371 20.538 8.56765 19.1126 8.26945 17.5607C7.97125 16.0089 8.12429 14.4003 8.70924 12.9385C9.2942 11.4767 10.2848 10.2273 11.5557 9.34824C12.8267 8.46919 14.3209 8 15.8494 8V0Z" fill="white"/>
<path d="M15.8494 0C13.8196 -2.5056e-08 11.8096 0.413852 9.93429 1.21793C8.05897 2.022 6.35501 3.20055 4.9197 4.68629C3.48438 6.17203 2.34583 7.93586 1.56905 9.87707C0.792262 11.8183 0.392456 13.8989 0.392456 16H8.12094C8.12094 14.9494 8.32085 13.9091 8.70923 12.9385C9.09763 11.9679 9.66688 11.086 10.3846 10.3431C11.1023 9.60028 11.9542 9.011 12.8919 8.60896C13.8295 8.20693 14.8345 8 15.8494 8V0Z" fill="#5CE1E6"/>
<path d="M15.8494 21C18.5171 21 20.6797 18.7614 20.6797 16C20.6797 13.2386 18.5171 11 15.8494 11C13.1817 11 11.0191 13.2386 11.0191 16C11.0191 18.7614 13.1817 21 15.8494 21Z" fill="#5CE1E6"/>
<path d="M20.6797 16C20.6797 15.3434 20.5548 14.6932 20.312 14.0866C20.0693 13.48 19.7135 12.9288 19.265 12.4645C18.8164 12.0002 18.2839 11.6319 17.6979 11.3806C17.1118 11.1293 16.4838 11 15.8494 11C15.2151 11 14.587 11.1293 14.0009 11.3806C13.4149 11.6319 12.8824 12.0002 12.4339 12.4645C11.9853 12.9288 11.6295 13.48 11.3868 14.0866C11.1441 14.6932 11.0191 15.3434 11.0192 16H15.8494H20.6797Z" fill="white"/>
</g>
<defs>
<clipPath id="clip0_10_24">
<rect width="31.88" height="32" fill="white"/>
</clipPath>
</defs>
</svg>
